# xmcd
#
# Track frame offsets: 
#        150
#        19650
#        36022
#        52687
#        70372
#        90022
#        107272
#        127522
#        144237
#        160650
#
# Disc length: 2860 seconds
#
# Revision: 2
# Processed by: cddbd v1.5.1PL2 Copyright (c) Steve Scherf et al.
# Submitted via: ExactAudioCopy v0.95b4
#
DISCID=600b2a0a
DTITLE=Anshelle - Part of the Game
DYEAR=2002
DGENRE=
TTITLE0=One Step
TTITLE1=Go-Girl
TTITLE2=Think of Me - Indian Summer
TTITLE3=When You Were Mine
TTITLE4=Part of the Game
TTITLE5=Moonlight Lady
TTITLE6=Somebody Special
TTITLE7=Sam
TTITLE8=Dancing in Solo
TTITLE9=Bangkok Smiling
EXTD=
EXTT0=
EXTT1=
EXTT2=
EXTT3=
EXTT4=
EXTT5=
EXTT6=
EXTT7=
EXTT8=
EXTT9=
PLAYORDER=
